<mxfile host="app.diagrams.net" modified="2023-04-26T11:20:36.316Z" agent="Mozilla/5.0 (Windows NT 10.0; Win64; x64) AppleWebKit/537.36 (KHTML, like Gecko) Chrome/112.0.0.0 Safari/537.36" etag="fc0n_9YG69o9Dw62KSzf" version="21.2.2" type="github">
  <diagram name="Página-1" id="wNdYIahg0364vmFdxBdu">
    <mxGraphModel dx="1687" dy="927" grid="1" gridSize="8" guides="1" tooltips="1" connect="1" arrows="1" fold="1" page="1" pageScale="1" pageWidth="827" pageHeight="1169" math="0" shadow="0">
      <root>
        <mxCell id="0" />
        <mxCell id="1" parent="0" />
        <mxCell id="yYNUlUmrQ3t4O4AnF94A-1" value="" style="rounded=0;whiteSpace=wrap;html=1;movable=1;resizable=1;rotatable=1;deletable=1;editable=1;locked=0;connectable=1;" vertex="1" parent="1">
          <mxGeometry x="100" y="60" width="276" height="188" as="geometry" />
        </mxCell>
        <mxCell id="yYNUlUmrQ3t4O4AnF94A-2" style="edgeStyle=orthogonalEdgeStyle;rounded=0;orthogonalLoop=1;jettySize=auto;html=1;exitX=0.5;exitY=1;exitDx=0;exitDy=0;movable=1;resizable=1;rotatable=1;deletable=1;editable=1;locked=0;connectable=1;" edge="1" parent="1" source="yYNUlUmrQ3t4O4AnF94A-1" target="yYNUlUmrQ3t4O4AnF94A-1">
          <mxGeometry relative="1" as="geometry" />
        </mxCell>
        <mxCell id="yYNUlUmrQ3t4O4AnF94A-3" value="" style="rounded=0;whiteSpace=wrap;html=1;movable=1;resizable=1;rotatable=1;deletable=1;editable=1;locked=0;connectable=1;" vertex="1" parent="1">
          <mxGeometry x="100" y="100" width="276" height="28" as="geometry" />
        </mxCell>
        <mxCell id="yYNUlUmrQ3t4O4AnF94A-4" value="" style="rounded=0;whiteSpace=wrap;html=1;movable=1;resizable=1;rotatable=1;deletable=1;editable=1;locked=0;connectable=1;" vertex="1" parent="1">
          <mxGeometry x="100" y="60" width="276" height="40" as="geometry" />
        </mxCell>
        <mxCell id="yYNUlUmrQ3t4O4AnF94A-5" value="" style="rounded=0;whiteSpace=wrap;html=1;movable=1;resizable=1;rotatable=1;deletable=1;editable=1;locked=0;connectable=1;" vertex="1" parent="1">
          <mxGeometry x="100" y="228" width="276" height="20" as="geometry" />
        </mxCell>
        <mxCell id="yYNUlUmrQ3t4O4AnF94A-16" value="" style="ellipse;whiteSpace=wrap;html=1;aspect=fixed;movable=1;resizable=1;rotatable=1;deletable=1;editable=1;locked=0;connectable=1;" vertex="1" parent="1">
          <mxGeometry x="160" y="65" width="30" height="30" as="geometry" />
        </mxCell>
        <mxCell id="yYNUlUmrQ3t4O4AnF94A-17" value="&lt;font style=&quot;font-size: 9px;&quot;&gt;RENAN CARVALHO MANERA&lt;/font&gt;" style="text;html=1;align=center;verticalAlign=middle;resizable=1;points=[];autosize=1;strokeColor=none;fillColor=none;movable=1;rotatable=1;deletable=1;editable=1;locked=0;connectable=1;" vertex="1" parent="1">
          <mxGeometry x="184" y="65" width="150" height="30" as="geometry" />
        </mxCell>
        <mxCell id="yYNUlUmrQ3t4O4AnF94A-19" value="" style="whiteSpace=wrap;html=1;aspect=fixed;movable=1;resizable=1;rotatable=1;deletable=1;editable=1;locked=0;connectable=1;" vertex="1" parent="1">
          <mxGeometry x="128" y="136" width="80" height="80" as="geometry" />
        </mxCell>
        <mxCell id="yYNUlUmrQ3t4O4AnF94A-20" value="Bem vindo" style="text;html=1;align=center;verticalAlign=middle;resizable=1;points=[];autosize=1;strokeColor=none;fillColor=none;movable=1;rotatable=1;deletable=1;editable=1;locked=0;connectable=1;" vertex="1" parent="1">
          <mxGeometry x="250" y="130" width="80" height="30" as="geometry" />
        </mxCell>
        <mxCell id="yYNUlUmrQ3t4O4AnF94A-25" value="&lt;div style=&quot;text-align: justify; font-size: 8px;&quot;&gt;Sou Renan Carvalho Manera, estudante de Ciência da Computação apaixonado por tecnologia e inovação. Tenho aplicado meus conhecimentos em programação,&lt;br&gt;&lt;/div&gt;" style="text;html=1;strokeColor=none;fillColor=none;align=center;verticalAlign=middle;whiteSpace=wrap;rounded=0;movable=1;resizable=1;rotatable=1;deletable=1;editable=1;locked=0;connectable=1;" vertex="1" parent="1">
          <mxGeometry x="222" y="160" width="136" height="54" as="geometry" />
        </mxCell>
        <mxCell id="yYNUlUmrQ3t4O4AnF94A-26" value="&lt;div style=&quot;&quot;&gt;&lt;span style=&quot;background-color: initial;&quot;&gt;&lt;font style=&quot;font-size: 6px;&quot;&gt;Feito por: Renan Carvalho Manera.&lt;/font&gt;&lt;/span&gt;&lt;/div&gt;" style="text;html=1;strokeColor=none;fillColor=none;align=center;verticalAlign=middle;whiteSpace=wrap;rounded=0;movable=1;resizable=1;rotatable=1;deletable=1;editable=1;locked=0;connectable=1;" vertex="1" parent="1">
          <mxGeometry x="138" y="228" width="194" height="20" as="geometry" />
        </mxCell>
        <mxCell id="yYNUlUmrQ3t4O4AnF94A-40" value="" style="html=1;verticalLabelPosition=bottom;align=center;labelBackgroundColor=#ffffff;verticalAlign=top;strokeWidth=2;shadow=0;dashed=0;shape=mxgraph.ios7.icons.info;movable=1;resizable=1;rotatable=1;deletable=1;editable=1;locked=0;connectable=1;" vertex="1" parent="1">
          <mxGeometry x="233" y="105.75" width="16" height="16" as="geometry" />
        </mxCell>
        <mxCell id="yYNUlUmrQ3t4O4AnF94A-41" value="" style="html=1;verticalLabelPosition=bottom;align=center;labelBackgroundColor=#ffffff;verticalAlign=top;strokeWidth=2;shadow=0;dashed=0;shape=mxgraph.ios7.icons.user;movable=1;resizable=1;rotatable=1;deletable=1;editable=1;locked=0;connectable=1;" vertex="1" parent="1">
          <mxGeometry x="258" y="105.75" width="16" height="16.5" as="geometry" />
        </mxCell>
        <mxCell id="yYNUlUmrQ3t4O4AnF94A-46" value="" style="ellipse;whiteSpace=wrap;html=1;movable=1;resizable=1;rotatable=1;deletable=1;editable=1;locked=0;connectable=1;" vertex="1" parent="1">
          <mxGeometry x="192" y="102" width="33" height="24" as="geometry" />
        </mxCell>
        <mxCell id="yYNUlUmrQ3t4O4AnF94A-39" value="" style="html=1;verticalLabelPosition=bottom;align=center;labelBackgroundColor=#ffffff;verticalAlign=top;strokeWidth=2;shadow=0;dashed=0;shape=mxgraph.ios7.icons.home;movable=1;resizable=1;rotatable=1;deletable=1;editable=1;locked=0;connectable=1;" vertex="1" parent="1">
          <mxGeometry x="200.5" y="105.75" width="16" height="16" as="geometry" />
        </mxCell>
        <mxCell id="yYNUlUmrQ3t4O4AnF94A-47" value="" style="rounded=0;whiteSpace=wrap;html=1;movable=0;resizable=0;rotatable=0;deletable=0;editable=0;locked=1;connectable=0;" vertex="1" parent="1">
          <mxGeometry x="103" y="296" width="276" height="188" as="geometry" />
        </mxCell>
        <mxCell id="yYNUlUmrQ3t4O4AnF94A-48" style="edgeStyle=orthogonalEdgeStyle;rounded=0;orthogonalLoop=1;jettySize=auto;html=1;exitX=0.5;exitY=1;exitDx=0;exitDy=0;movable=0;resizable=0;rotatable=0;deletable=0;editable=0;locked=1;connectable=0;" edge="1" parent="1" source="yYNUlUmrQ3t4O4AnF94A-47" target="yYNUlUmrQ3t4O4AnF94A-47">
          <mxGeometry relative="1" as="geometry" />
        </mxCell>
        <mxCell id="yYNUlUmrQ3t4O4AnF94A-49" value="" style="rounded=0;whiteSpace=wrap;html=1;movable=0;resizable=0;rotatable=0;deletable=0;editable=0;locked=1;connectable=0;" vertex="1" parent="1">
          <mxGeometry x="103" y="336" width="276" height="28" as="geometry" />
        </mxCell>
        <mxCell id="yYNUlUmrQ3t4O4AnF94A-50" value="" style="rounded=0;whiteSpace=wrap;html=1;movable=0;resizable=0;rotatable=0;deletable=0;editable=0;locked=1;connectable=0;" vertex="1" parent="1">
          <mxGeometry x="103" y="296" width="276" height="40" as="geometry" />
        </mxCell>
        <mxCell id="yYNUlUmrQ3t4O4AnF94A-51" value="" style="rounded=0;whiteSpace=wrap;html=1;movable=0;resizable=0;rotatable=0;deletable=0;editable=0;locked=1;connectable=0;" vertex="1" parent="1">
          <mxGeometry x="103" y="464" width="276" height="20" as="geometry" />
        </mxCell>
        <mxCell id="yYNUlUmrQ3t4O4AnF94A-52" value="" style="ellipse;whiteSpace=wrap;html=1;aspect=fixed;movable=0;resizable=0;rotatable=0;deletable=0;editable=0;locked=1;connectable=0;" vertex="1" parent="1">
          <mxGeometry x="163" y="301" width="30" height="30" as="geometry" />
        </mxCell>
        <mxCell id="yYNUlUmrQ3t4O4AnF94A-53" value="&lt;font style=&quot;font-size: 9px;&quot;&gt;RENAN CARVALHO MANERA&lt;/font&gt;" style="text;html=1;align=center;verticalAlign=middle;resizable=0;points=[];autosize=1;strokeColor=none;fillColor=none;movable=0;rotatable=0;deletable=0;editable=0;locked=1;connectable=0;" vertex="1" parent="1">
          <mxGeometry x="187" y="301" width="150" height="30" as="geometry" />
        </mxCell>
        <mxCell id="yYNUlUmrQ3t4O4AnF94A-54" value="" style="whiteSpace=wrap;html=1;aspect=fixed;movable=0;resizable=0;rotatable=0;deletable=0;editable=0;locked=1;connectable=0;" vertex="1" parent="1">
          <mxGeometry x="131" y="372" width="80" height="80" as="geometry" />
        </mxCell>
        <mxCell id="yYNUlUmrQ3t4O4AnF94A-55" value="Um pouco sobre mim ..." style="text;html=1;align=center;verticalAlign=middle;resizable=1;points=[];autosize=1;strokeColor=none;fillColor=none;movable=1;rotatable=1;deletable=1;editable=1;locked=0;connectable=1;" vertex="1" parent="1">
          <mxGeometry x="221" y="365" width="144" height="32" as="geometry" />
        </mxCell>
        <mxCell id="yYNUlUmrQ3t4O4AnF94A-56" value="&lt;div style=&quot;text-align: justify; font-size: 8px;&quot;&gt;Olá! Sou estudante de Ciência da Computação na Universidade Vila Velha (UVV). Sou apaixonado por tecnologia e programação desde cedo,&amp;nbsp;&lt;br&gt;&lt;/div&gt;" style="text;html=1;strokeColor=none;fillColor=none;align=center;verticalAlign=middle;whiteSpace=wrap;rounded=0;movable=1;resizable=1;rotatable=1;deletable=1;editable=1;locked=0;connectable=1;" vertex="1" parent="1">
          <mxGeometry x="225" y="396" width="136" height="54" as="geometry" />
        </mxCell>
        <mxCell id="yYNUlUmrQ3t4O4AnF94A-57" value="&lt;div style=&quot;&quot;&gt;&lt;span style=&quot;background-color: initial;&quot;&gt;&lt;font style=&quot;font-size: 6px;&quot;&gt;Feito por: Renan Carvalho Manera.&lt;/font&gt;&lt;/span&gt;&lt;/div&gt;" style="text;html=1;strokeColor=none;fillColor=none;align=center;verticalAlign=middle;whiteSpace=wrap;rounded=0;movable=1;resizable=1;rotatable=1;deletable=1;editable=1;locked=0;connectable=1;" vertex="1" parent="1">
          <mxGeometry x="141" y="464" width="194" height="20" as="geometry" />
        </mxCell>
        <mxCell id="yYNUlUmrQ3t4O4AnF94A-59" value="" style="html=1;verticalLabelPosition=bottom;align=center;labelBackgroundColor=#ffffff;verticalAlign=top;strokeWidth=2;shadow=0;dashed=0;shape=mxgraph.ios7.icons.user;movable=0;resizable=0;rotatable=0;deletable=0;editable=0;locked=1;connectable=0;" vertex="1" parent="1">
          <mxGeometry x="271" y="342.25" width="16" height="16.5" as="geometry" />
        </mxCell>
        <mxCell id="yYNUlUmrQ3t4O4AnF94A-60" value="" style="ellipse;whiteSpace=wrap;html=1;movable=0;resizable=0;rotatable=0;deletable=0;editable=0;locked=1;connectable=0;" vertex="1" parent="1">
          <mxGeometry x="227.5" y="338" width="33" height="24" as="geometry" />
        </mxCell>
        <mxCell id="yYNUlUmrQ3t4O4AnF94A-61" value="" style="html=1;verticalLabelPosition=bottom;align=center;labelBackgroundColor=#ffffff;verticalAlign=top;strokeWidth=2;shadow=0;dashed=0;shape=mxgraph.ios7.icons.home;movable=0;resizable=0;rotatable=0;deletable=0;editable=0;locked=1;connectable=0;" vertex="1" parent="1">
          <mxGeometry x="200.5" y="342.25" width="16" height="16" as="geometry" />
        </mxCell>
        <mxCell id="yYNUlUmrQ3t4O4AnF94A-62" value="" style="rounded=0;whiteSpace=wrap;html=1;movable=1;resizable=1;rotatable=1;deletable=1;editable=1;locked=0;connectable=1;" vertex="1" parent="1">
          <mxGeometry x="103" y="520" width="276" height="188" as="geometry" />
        </mxCell>
        <mxCell id="yYNUlUmrQ3t4O4AnF94A-63" style="edgeStyle=orthogonalEdgeStyle;rounded=0;orthogonalLoop=1;jettySize=auto;html=1;exitX=0.5;exitY=1;exitDx=0;exitDy=0;movable=1;resizable=1;rotatable=1;deletable=1;editable=1;locked=0;connectable=1;" edge="1" parent="1" source="yYNUlUmrQ3t4O4AnF94A-62" target="yYNUlUmrQ3t4O4AnF94A-62">
          <mxGeometry relative="1" as="geometry" />
        </mxCell>
        <mxCell id="yYNUlUmrQ3t4O4AnF94A-64" value="" style="rounded=0;whiteSpace=wrap;html=1;movable=1;resizable=1;rotatable=1;deletable=1;editable=1;locked=0;connectable=1;" vertex="1" parent="1">
          <mxGeometry x="103" y="560" width="276" height="28" as="geometry" />
        </mxCell>
        <mxCell id="yYNUlUmrQ3t4O4AnF94A-65" value="" style="rounded=0;whiteSpace=wrap;html=1;movable=1;resizable=1;rotatable=1;deletable=1;editable=1;locked=0;connectable=1;" vertex="1" parent="1">
          <mxGeometry x="103" y="520" width="276" height="40" as="geometry" />
        </mxCell>
        <mxCell id="yYNUlUmrQ3t4O4AnF94A-66" value="" style="rounded=0;whiteSpace=wrap;html=1;movable=1;resizable=1;rotatable=1;deletable=1;editable=1;locked=0;connectable=1;" vertex="1" parent="1">
          <mxGeometry x="103" y="688" width="276" height="20" as="geometry" />
        </mxCell>
        <mxCell id="yYNUlUmrQ3t4O4AnF94A-67" value="" style="ellipse;whiteSpace=wrap;html=1;aspect=fixed;movable=1;resizable=1;rotatable=1;deletable=1;editable=1;locked=0;connectable=1;" vertex="1" parent="1">
          <mxGeometry x="163" y="525" width="30" height="30" as="geometry" />
        </mxCell>
        <mxCell id="yYNUlUmrQ3t4O4AnF94A-68" value="&lt;font style=&quot;font-size: 9px;&quot;&gt;RENAN CARVALHO MANERA&lt;/font&gt;" style="text;html=1;align=center;verticalAlign=middle;resizable=1;points=[];autosize=1;strokeColor=none;fillColor=none;movable=1;rotatable=1;deletable=1;editable=1;locked=0;connectable=1;" vertex="1" parent="1">
          <mxGeometry x="187" y="525" width="150" height="30" as="geometry" />
        </mxCell>
        <mxCell id="yYNUlUmrQ3t4O4AnF94A-69" value="" style="whiteSpace=wrap;html=1;aspect=fixed;movable=1;resizable=1;rotatable=1;deletable=1;editable=1;locked=0;connectable=1;" vertex="1" parent="1">
          <mxGeometry x="131" y="596" width="80" height="80" as="geometry" />
        </mxCell>
        <mxCell id="yYNUlUmrQ3t4O4AnF94A-70" value="Me acompanhem por aqui" style="text;html=1;align=center;verticalAlign=middle;resizable=1;points=[];autosize=1;strokeColor=none;fillColor=none;movable=1;rotatable=1;deletable=1;editable=1;locked=0;connectable=1;" vertex="1" parent="1">
          <mxGeometry x="213" y="589" width="160" height="32" as="geometry" />
        </mxCell>
        <mxCell id="yYNUlUmrQ3t4O4AnF94A-71" value="&lt;div style=&quot;font-size: 8px;&quot;&gt;@renanmanra&lt;br&gt;&lt;/div&gt;&lt;div style=&quot;font-size: 8px;&quot;&gt;&lt;br&gt;&lt;/div&gt;&lt;div style=&quot;font-size: 8px;&quot;&gt;@renancmanera&lt;/div&gt;" style="text;html=1;strokeColor=none;fillColor=none;align=center;verticalAlign=middle;whiteSpace=wrap;rounded=0;movable=1;resizable=1;rotatable=1;deletable=1;editable=1;locked=0;connectable=1;" vertex="1" parent="1">
          <mxGeometry x="222" y="621" width="136" height="54" as="geometry" />
        </mxCell>
        <mxCell id="yYNUlUmrQ3t4O4AnF94A-72" value="&lt;div style=&quot;&quot;&gt;&lt;span style=&quot;background-color: initial;&quot;&gt;&lt;font style=&quot;font-size: 6px;&quot;&gt;Feito por: Renan Carvalho Manera.&lt;/font&gt;&lt;/span&gt;&lt;/div&gt;" style="text;html=1;strokeColor=none;fillColor=none;align=center;verticalAlign=middle;whiteSpace=wrap;rounded=0;movable=1;resizable=1;rotatable=1;deletable=1;editable=1;locked=0;connectable=1;" vertex="1" parent="1">
          <mxGeometry x="141" y="688" width="194" height="20" as="geometry" />
        </mxCell>
        <mxCell id="yYNUlUmrQ3t4O4AnF94A-73" value="" style="html=1;verticalLabelPosition=bottom;align=center;labelBackgroundColor=#ffffff;verticalAlign=top;strokeWidth=2;shadow=0;dashed=0;shape=mxgraph.ios7.icons.info;movable=0;resizable=0;rotatable=0;deletable=0;editable=0;locked=1;connectable=0;" vertex="1" parent="1">
          <mxGeometry x="228" y="565.75" width="16" height="16" as="geometry" />
        </mxCell>
        <mxCell id="yYNUlUmrQ3t4O4AnF94A-75" value="" style="ellipse;whiteSpace=wrap;html=1;movable=1;resizable=1;rotatable=1;deletable=1;editable=1;locked=0;connectable=1;" vertex="1" parent="1">
          <mxGeometry x="252.5" y="562" width="33" height="24" as="geometry" />
        </mxCell>
        <mxCell id="yYNUlUmrQ3t4O4AnF94A-76" value="" style="html=1;verticalLabelPosition=bottom;align=center;labelBackgroundColor=#ffffff;verticalAlign=top;strokeWidth=2;shadow=0;dashed=0;shape=mxgraph.ios7.icons.home;movable=0;resizable=0;rotatable=0;deletable=0;editable=0;locked=1;connectable=0;" vertex="1" parent="1">
          <mxGeometry x="203.5" y="565.75" width="16" height="16" as="geometry" />
        </mxCell>
        <mxCell id="yYNUlUmrQ3t4O4AnF94A-78" value="" style="rounded=0;whiteSpace=wrap;html=1;rotation=-90;" vertex="1" parent="1">
          <mxGeometry x="491.19" y="105.94" width="162.25" height="106.38" as="geometry" />
        </mxCell>
        <mxCell id="yYNUlUmrQ3t4O4AnF94A-58" value="" style="html=1;verticalLabelPosition=bottom;align=center;labelBackgroundColor=#ffffff;verticalAlign=top;strokeWidth=2;shadow=0;dashed=0;shape=mxgraph.ios7.icons.info;movable=0;resizable=0;rotatable=0;deletable=0;editable=0;locked=1;connectable=0;" vertex="1" parent="1">
          <mxGeometry x="236" y="341.75" width="16" height="16" as="geometry" />
        </mxCell>
        <mxCell id="yYNUlUmrQ3t4O4AnF94A-74" value="" style="html=1;verticalLabelPosition=bottom;align=center;labelBackgroundColor=#ffffff;verticalAlign=top;strokeWidth=2;shadow=0;dashed=0;shape=mxgraph.ios7.icons.user;movable=0;resizable=0;rotatable=0;deletable=0;editable=0;locked=1;connectable=0;" vertex="1" parent="1">
          <mxGeometry x="261" y="565.75" width="16" height="16.5" as="geometry" />
        </mxCell>
        <mxCell id="yYNUlUmrQ3t4O4AnF94A-82" value="" style="rounded=0;whiteSpace=wrap;html=1;movable=1;resizable=1;rotatable=1;deletable=1;editable=1;locked=0;connectable=1;" vertex="1" parent="1">
          <mxGeometry x="520" y="224" width="105" height="16" as="geometry" />
        </mxCell>
        <mxCell id="yYNUlUmrQ3t4O4AnF94A-83" value="&lt;div style=&quot;&quot;&gt;&lt;span style=&quot;background-color: initial;&quot;&gt;&lt;font style=&quot;font-size: 6px;&quot;&gt;Feito por: Renan Carvalho Manera.&lt;/font&gt;&lt;/span&gt;&lt;/div&gt;" style="text;html=1;strokeColor=none;fillColor=none;align=center;verticalAlign=middle;whiteSpace=wrap;rounded=0;movable=1;resizable=1;rotatable=1;deletable=1;editable=1;locked=0;connectable=1;" vertex="1" parent="1">
          <mxGeometry x="523.81" y="220" width="97" height="20" as="geometry" />
        </mxCell>
        <mxCell id="yYNUlUmrQ3t4O4AnF94A-84" value="" style="rounded=0;whiteSpace=wrap;html=1;movable=1;resizable=1;rotatable=1;deletable=1;editable=1;locked=0;connectable=1;" vertex="1" parent="1">
          <mxGeometry x="519.81" y="75.75" width="105" height="44.25" as="geometry" />
        </mxCell>
        <mxCell id="yYNUlUmrQ3t4O4AnF94A-79" value="&lt;font style=&quot;font-size: 7px;&quot;&gt;RENAN CARVALHO MANERA&lt;/font&gt;" style="text;html=1;align=center;verticalAlign=middle;resizable=1;points=[];autosize=1;strokeColor=none;fillColor=none;movable=1;rotatable=1;deletable=1;editable=1;locked=0;connectable=1;" vertex="1" parent="1">
          <mxGeometry x="511.68" y="94" width="120" height="32" as="geometry" />
        </mxCell>
        <mxCell id="yYNUlUmrQ3t4O4AnF94A-80" value="" style="ellipse;whiteSpace=wrap;html=1;aspect=fixed;movable=1;resizable=1;rotatable=1;deletable=1;editable=1;locked=0;connectable=1;" vertex="1" parent="1">
          <mxGeometry x="561.13" y="79.25" width="22.75" height="22.75" as="geometry" />
        </mxCell>
        <mxCell id="yYNUlUmrQ3t4O4AnF94A-87" value="" style="html=1;verticalLabelPosition=bottom;align=center;labelBackgroundColor=#ffffff;verticalAlign=top;strokeWidth=2;shadow=0;dashed=0;shape=mxgraph.ios7.icons.most_viewed;pointerEvents=1" vertex="1" parent="1">
          <mxGeometry x="603.81" y="82.75" width="17" height="12.25" as="geometry" />
        </mxCell>
        <mxCell id="yYNUlUmrQ3t4O4AnF94A-89" value="" style="whiteSpace=wrap;html=1;aspect=fixed;movable=1;resizable=1;rotatable=1;deletable=1;editable=1;locked=0;connectable=1;" vertex="1" parent="1">
          <mxGeometry x="553.47" y="144" width="38.06" height="38.06" as="geometry" />
        </mxCell>
        <mxCell id="yYNUlUmrQ3t4O4AnF94A-90" value="Bem vindo" style="text;html=1;align=center;verticalAlign=middle;resizable=1;points=[];autosize=1;strokeColor=none;fillColor=none;movable=1;rotatable=1;deletable=1;editable=1;locked=0;connectable=1;" vertex="1" parent="1">
          <mxGeometry x="534.41" y="122.25" width="76.19" height="18" as="geometry" />
        </mxCell>
        <mxCell id="yYNUlUmrQ3t4O4AnF94A-91" value="&lt;div style=&quot;text-align: justify; font-size: 8px;&quot;&gt;Sou Renan Carvalho Manera, estudante de Ciência da Computação&lt;br&gt;&lt;/div&gt;" style="text;html=1;strokeColor=none;fillColor=none;align=center;verticalAlign=middle;whiteSpace=wrap;rounded=0;movable=1;resizable=1;rotatable=1;deletable=1;editable=1;locked=0;connectable=1;" vertex="1" parent="1">
          <mxGeometry x="528" y="200" width="88" height="2" as="geometry" />
        </mxCell>
        <mxCell id="yYNUlUmrQ3t4O4AnF94A-102" value="" style="rounded=0;whiteSpace=wrap;html=1;rotation=-90;" vertex="1" parent="1">
          <mxGeometry x="490.55" y="338.06" width="162.25" height="106.38" as="geometry" />
        </mxCell>
        <mxCell id="yYNUlUmrQ3t4O4AnF94A-103" value="" style="rounded=0;whiteSpace=wrap;html=1;movable=1;resizable=1;rotatable=1;deletable=1;editable=1;locked=0;connectable=1;" vertex="1" parent="1">
          <mxGeometry x="519.36" y="456.12" width="105" height="16" as="geometry" />
        </mxCell>
        <mxCell id="yYNUlUmrQ3t4O4AnF94A-104" value="&lt;div style=&quot;&quot;&gt;&lt;span style=&quot;background-color: initial;&quot;&gt;&lt;font style=&quot;font-size: 6px;&quot;&gt;Feito por: Renan Carvalho Manera.&lt;/font&gt;&lt;/span&gt;&lt;/div&gt;" style="text;html=1;strokeColor=none;fillColor=none;align=center;verticalAlign=middle;whiteSpace=wrap;rounded=0;movable=1;resizable=1;rotatable=1;deletable=1;editable=1;locked=0;connectable=1;" vertex="1" parent="1">
          <mxGeometry x="523.17" y="452.12" width="97" height="20" as="geometry" />
        </mxCell>
        <mxCell id="yYNUlUmrQ3t4O4AnF94A-105" value="" style="rounded=0;whiteSpace=wrap;html=1;movable=1;resizable=1;rotatable=1;deletable=1;editable=1;locked=0;connectable=1;" vertex="1" parent="1">
          <mxGeometry x="519.17" y="307.87" width="105" height="44.25" as="geometry" />
        </mxCell>
        <mxCell id="yYNUlUmrQ3t4O4AnF94A-106" value="&lt;font style=&quot;font-size: 7px;&quot;&gt;RENAN CARVALHO MANERA&lt;/font&gt;" style="text;html=1;align=center;verticalAlign=middle;resizable=1;points=[];autosize=1;strokeColor=none;fillColor=none;movable=1;rotatable=1;deletable=1;editable=1;locked=0;connectable=1;" vertex="1" parent="1">
          <mxGeometry x="511.0400000000001" y="326.12" width="120" height="32" as="geometry" />
        </mxCell>
        <mxCell id="yYNUlUmrQ3t4O4AnF94A-107" value="" style="ellipse;whiteSpace=wrap;html=1;aspect=fixed;movable=1;resizable=1;rotatable=1;deletable=1;editable=1;locked=0;connectable=1;" vertex="1" parent="1">
          <mxGeometry x="560.49" y="311.37" width="22.75" height="22.75" as="geometry" />
        </mxCell>
        <mxCell id="yYNUlUmrQ3t4O4AnF94A-108" value="" style="html=1;verticalLabelPosition=bottom;align=center;labelBackgroundColor=#ffffff;verticalAlign=top;strokeWidth=2;shadow=0;dashed=0;shape=mxgraph.ios7.icons.most_viewed;pointerEvents=1" vertex="1" parent="1">
          <mxGeometry x="603.17" y="314.87" width="17" height="12.25" as="geometry" />
        </mxCell>
        <mxCell id="yYNUlUmrQ3t4O4AnF94A-109" value="" style="whiteSpace=wrap;html=1;aspect=fixed;movable=1;resizable=1;rotatable=1;deletable=1;editable=1;locked=0;connectable=1;" vertex="1" parent="1">
          <mxGeometry x="553.48" y="390.25" width="38.06" height="38.06" as="geometry" />
        </mxCell>
        <mxCell id="yYNUlUmrQ3t4O4AnF94A-111" value="&lt;div style=&quot;text-align: justify; font-size: 8px;&quot;&gt;Olá! Sou estudante de Ciência da Computação&lt;br&gt;&lt;/div&gt;" style="text;html=1;strokeColor=none;fillColor=none;align=center;verticalAlign=middle;whiteSpace=wrap;rounded=0;movable=1;resizable=1;rotatable=1;deletable=1;editable=1;locked=0;connectable=1;" vertex="1" parent="1">
          <mxGeometry x="527.04" y="440" width="88" height="2.12" as="geometry" />
        </mxCell>
        <mxCell id="yYNUlUmrQ3t4O4AnF94A-116" value="" style="rounded=0;whiteSpace=wrap;html=1;rotation=-90;" vertex="1" parent="1">
          <mxGeometry x="489.91" y="562.0699999999999" width="162.25" height="106.38" as="geometry" />
        </mxCell>
        <mxCell id="yYNUlUmrQ3t4O4AnF94A-117" value="" style="rounded=0;whiteSpace=wrap;html=1;movable=1;resizable=1;rotatable=1;deletable=1;editable=1;locked=0;connectable=1;" vertex="1" parent="1">
          <mxGeometry x="518.72" y="680.13" width="105" height="16" as="geometry" />
        </mxCell>
        <mxCell id="yYNUlUmrQ3t4O4AnF94A-118" value="&lt;div style=&quot;&quot;&gt;&lt;span style=&quot;background-color: initial;&quot;&gt;&lt;font style=&quot;font-size: 6px;&quot;&gt;Feito por: Renan Carvalho Manera.&lt;/font&gt;&lt;/span&gt;&lt;/div&gt;" style="text;html=1;strokeColor=none;fillColor=none;align=center;verticalAlign=middle;whiteSpace=wrap;rounded=0;movable=1;resizable=1;rotatable=1;deletable=1;editable=1;locked=0;connectable=1;" vertex="1" parent="1">
          <mxGeometry x="522.53" y="676.13" width="97" height="20" as="geometry" />
        </mxCell>
        <mxCell id="yYNUlUmrQ3t4O4AnF94A-119" value="" style="rounded=0;whiteSpace=wrap;html=1;movable=1;resizable=1;rotatable=1;deletable=1;editable=1;locked=0;connectable=1;" vertex="1" parent="1">
          <mxGeometry x="518.53" y="531.88" width="105" height="44.25" as="geometry" />
        </mxCell>
        <mxCell id="yYNUlUmrQ3t4O4AnF94A-120" value="&lt;font style=&quot;font-size: 7px;&quot;&gt;RENAN CARVALHO MANERA&lt;/font&gt;" style="text;html=1;align=center;verticalAlign=middle;resizable=1;points=[];autosize=1;strokeColor=none;fillColor=none;movable=1;rotatable=1;deletable=1;editable=1;locked=0;connectable=1;" vertex="1" parent="1">
          <mxGeometry x="510.4000000000001" y="550.13" width="120" height="32" as="geometry" />
        </mxCell>
        <mxCell id="yYNUlUmrQ3t4O4AnF94A-121" value="" style="ellipse;whiteSpace=wrap;html=1;aspect=fixed;movable=1;resizable=1;rotatable=1;deletable=1;editable=1;locked=0;connectable=1;" vertex="1" parent="1">
          <mxGeometry x="559.85" y="535.38" width="22.75" height="22.75" as="geometry" />
        </mxCell>
        <mxCell id="yYNUlUmrQ3t4O4AnF94A-122" value="" style="html=1;verticalLabelPosition=bottom;align=center;labelBackgroundColor=#ffffff;verticalAlign=top;strokeWidth=2;shadow=0;dashed=0;shape=mxgraph.ios7.icons.most_viewed;pointerEvents=1" vertex="1" parent="1">
          <mxGeometry x="602.53" y="538.88" width="17" height="12.25" as="geometry" />
        </mxCell>
        <mxCell id="yYNUlUmrQ3t4O4AnF94A-123" value="" style="whiteSpace=wrap;html=1;aspect=fixed;movable=1;resizable=1;rotatable=1;deletable=1;editable=1;locked=0;connectable=1;" vertex="1" parent="1">
          <mxGeometry x="553.2800000000001" y="616.97" width="38.06" height="38.06" as="geometry" />
        </mxCell>
        <mxCell id="yYNUlUmrQ3t4O4AnF94A-124" value="&lt;font style=&quot;font-size: 11px;&quot;&gt;Me acompanhem&lt;br&gt;&amp;nbsp;por aqui&lt;/font&gt;" style="text;html=1;align=center;verticalAlign=middle;resizable=1;points=[];autosize=1;strokeColor=none;fillColor=none;movable=1;rotatable=1;deletable=1;editable=1;locked=0;connectable=1;" vertex="1" parent="1">
          <mxGeometry x="518.4" y="573" width="104" height="48" as="geometry" />
        </mxCell>
        <mxCell id="yYNUlUmrQ3t4O4AnF94A-125" value="&lt;div style=&quot;text-align: justify; font-size: 8px;&quot;&gt;Olá! Sou estudante de Ciência da Computação&lt;br&gt;&lt;/div&gt;" style="text;html=1;strokeColor=none;fillColor=none;align=center;verticalAlign=middle;whiteSpace=wrap;rounded=0;movable=1;resizable=1;rotatable=1;deletable=1;editable=1;locked=0;connectable=1;" vertex="1" parent="1">
          <mxGeometry x="526.4" y="664" width="88" height="2.12" as="geometry" />
        </mxCell>
        <mxCell id="yYNUlUmrQ3t4O4AnF94A-126" value="&lt;font style=&quot;font-size: 10px;&quot;&gt;Um pouco &lt;br&gt;sobre mim ...&lt;/font&gt;" style="text;html=1;align=center;verticalAlign=middle;resizable=1;points=[];autosize=1;strokeColor=none;fillColor=none;movable=1;rotatable=1;deletable=1;editable=1;locked=0;connectable=1;" vertex="1" parent="1">
          <mxGeometry x="532.5100000000001" y="348" width="80" height="48" as="geometry" />
        </mxCell>
      </root>
    </mxGraphModel>
  </diagram>
</mxfile>
